<svg width="1226" height="651" xmlns="http://www.w3.org/2000/svg"><g><path d="M-69,-89L-60,634L-65,99Z" fill="#e48767" stroke="#e48767" fill-opacity="1" stroke-opacity="1"></path><path d="M-69,-89L-65,99L18,114Z" fill="#e74333" stroke="#e74333" fill-opacity="1" stroke-opacity="1"></path><path d="M-69,-89L18,114L106,-122Z" fill="#ed2623" stroke="#ed2623" fill-opacity="1" stroke-opacity="1"></path><path d="M106,-122L18,114L213,26Z" fill="#f7563d" stroke="#f7563d" fill-opacity="1" stroke-opacity="1"></path><path d="M106,-122L213,26L207,-71Z" fill="#fe4732" stroke="#fe4732" fill-opacity="1" stroke-opacity="1"></path><path d="M106,-122L207,-71L797,-120Z" fill="#ff7249" stroke="#ff7249" fill-opacity="1" stroke-opacity="1"></path><path d="M106,-122L797,-120L1217,-124Z" fill="#eb7745" stroke="#eb7745" fill-opacity="1" stroke-opacity="1"></path><path d="M207,-71L213,26L328,-35Z" fill="#fe6546" stroke="#fe6546" fill-opacity="1" stroke-opacity="1"></path><path d="M207,-71L328,-35L797,-120Z" fill="#ff7954" stroke="#ff7954" fill-opacity="1" stroke-opacity="1"></path><path d="M328,-35L213,26L300,97Z" fill="#fe8e5c" stroke="#fe8e5c" fill-opacity="1" stroke-opacity="1"></path><path d="M328,-35L300,97L455,68Z" fill="#ffa86c" stroke="#ffa86c" fill-opacity="1" stroke-opacity="1"></path><path d="M328,-35L455,68L530,-27Z" fill="#ff956a" stroke="#ff956a" fill-opacity="1" stroke-opacity="1"></path><path d="M328,-35L530,-27L797,-120Z" fill="#fc7f5f" stroke="#fc7f5f" fill-opacity="1" stroke-opacity="1"></path><path d="M530,-27L455,68L677,88Z" fill="#fcb481" stroke="#fcb481" fill-opacity="1" stroke-opacity="1"></path><path d="M530,-27L677,88L642,-29Z" fill="#f59f6d" stroke="#f59f6d" fill-opacity="1" stroke-opacity="1"></path><path d="M530,-27L642,-29L797,-120Z" fill="#f17a50" stroke="#f17a50" fill-opacity="1" stroke-opacity="1"></path><path d="M642,-29L677,88L726,18Z" fill="#eea568" stroke="#eea568" fill-opacity="1" stroke-opacity="1"></path><path d="M642,-29L726,18L797,-120Z" fill="#e8784c" stroke="#e8784c" fill-opacity="1" stroke-opacity="1"></path><path d="M797,-120L726,18L900,17Z" fill="#d67947" stroke="#d67947" fill-opacity="1" stroke-opacity="1"></path><path d="M797,-120L900,17L942,-81Z" fill="#c76733" stroke="#c76733" fill-opacity="1" stroke-opacity="1"></path><path d="M797,-120L942,-81L1217,-124Z" fill="#a3572b" stroke="#a3572b" fill-opacity="1" stroke-opacity="1"></path><path d="M942,-81L900,17L1094,-30Z" fill="#a56239" stroke="#a56239" fill-opacity="1" stroke-opacity="1"></path><path d="M942,-81L1094,-30L1217,-124Z" fill="#814727" stroke="#814727" fill-opacity="1" stroke-opacity="1"></path><path d="M1094,-30L900,17L1090,84Z" fill="#957a48" stroke="#957a48" fill-opacity="1" stroke-opacity="1"></path><path d="M1094,-30L1090,84L1167,78Z" fill="#80794a" stroke="#80794a" fill-opacity="1" stroke-opacity="1"></path><path d="M1094,-30L1167,78L1217,-124Z" fill="#804932" stroke="#804932" fill-opacity="1" stroke-opacity="1"></path><path d="M1217,-124L1167,78L1276,56Z" fill="#805039" stroke="#805039" fill-opacity="1" stroke-opacity="1"></path><path d="M1217,-124L1276,56L1380,-106Z" fill="#802722" stroke="#802722" fill-opacity="1" stroke-opacity="1"></path><path d="M1380,-106L1276,56L1332,167Z" fill="#80553f" stroke="#80553f" fill-opacity="1" stroke-opacity="1"></path><path d="M1380,-106L1332,167L1361,727Z" fill="#809c87" stroke="#809c87" fill-opacity="1" stroke-opacity="1"></path><path d="M-65,99L-60,634L-59,247Z" fill="#e5876d" stroke="#e5876d" fill-opacity="1" stroke-opacity="1"></path><path d="M-65,99L-59,247L18,114Z" fill="#e87f57" stroke="#e87f57" fill-opacity="1" stroke-opacity="1"></path><path d="M18,114L-59,247L105,258Z" fill="#ee9d71" stroke="#ee9d71" fill-opacity="1" stroke-opacity="1"></path><path d="M18,114L105,258L177,176Z" fill="#f6b174" stroke="#f6b174" fill-opacity="1" stroke-opacity="1"></path><path d="M18,114L177,176L213,26Z" fill="#fa9660" stroke="#fa9660" fill-opacity="1" stroke-opacity="1"></path><path d="M213,26L177,176L300,97Z" fill="#feab6c" stroke="#feab6c" fill-opacity="1" stroke-opacity="1"></path><path d="M300,97L177,176L307,199Z" fill="#fecd83" stroke="#fecd83" fill-opacity="1" stroke-opacity="1"></path><path d="M300,97L307,199L445,172Z" fill="#ffe28f" stroke="#ffe28f" fill-opacity="1" stroke-opacity="1"></path><path d="M300,97L445,172L455,68Z" fill="#ffd288" stroke="#ffd288" fill-opacity="1" stroke-opacity="1"></path><path d="M455,68L445,172L648,199Z" fill="#ffeca4" stroke="#ffeca4" fill-opacity="1" stroke-opacity="1"></path><path d="M455,68L648,199L677,88Z" fill="#f8dd93" stroke="#f8dd93" fill-opacity="1" stroke-opacity="1"></path><path d="M677,88L648,199L757,174Z" fill="#ede98f" stroke="#ede98f" fill-opacity="1" stroke-opacity="1"></path><path d="M677,88L757,174L726,18Z" fill="#e8ca78" stroke="#e8ca78" fill-opacity="1" stroke-opacity="1"></path><path d="M726,18L757,174L900,17Z" fill="#d9b568" stroke="#d9b568" fill-opacity="1" stroke-opacity="1"></path><path d="M900,17L757,174L899,232Z" fill="#cdd478" stroke="#cdd478" fill-opacity="1" stroke-opacity="1"></path><path d="M900,17L899,232L1090,84Z" fill="#abb767" stroke="#abb767" fill-opacity="1" stroke-opacity="1"></path><path d="M1090,84L899,232L1068,258Z" fill="#98d17f" stroke="#98d17f" fill-opacity="1" stroke-opacity="1"></path><path d="M1090,84L1068,258L1215,207Z" fill="#80bf77" stroke="#80bf77" fill-opacity="1" stroke-opacity="1"></path><path d="M1090,84L1215,207L1167,78Z" fill="#809e62" stroke="#809e62" fill-opacity="1" stroke-opacity="1"></path><path d="M1167,78L1215,207L1276,56Z" fill="#808f5c" stroke="#808f5c" fill-opacity="1" stroke-opacity="1"></path><path d="M1276,56L1215,207L1332,167Z" fill="#809563" stroke="#809563" fill-opacity="1" stroke-opacity="1"></path><path d="M-59,247L-60,634L-51,384Z" fill="#cf8751" stroke="#cf8751" fill-opacity="1" stroke-opacity="1"></path><path d="M-59,247L-51,384L69,330Z" fill="#ea9476" stroke="#ea9476" fill-opacity="1" stroke-opacity="1"></path><path d="M-59,247L69,330L105,258Z" fill="#efa28b" stroke="#efa28b" fill-opacity="1" stroke-opacity="1"></path><path d="M105,258L69,330L248,322Z" fill="#fabd92" stroke="#fabd92" fill-opacity="1" stroke-opacity="1"></path><path d="M105,258L248,322L177,176Z" fill="#fec796" stroke="#fec796" fill-opacity="1" stroke-opacity="1"></path><path d="M177,176L248,322L307,199Z" fill="#fed799" stroke="#fed799" fill-opacity="1" stroke-opacity="1"></path><path d="M307,199L248,322L331,316Z" fill="#fee3b0" stroke="#fee3b0" fill-opacity="1" stroke-opacity="1"></path><path d="M307,199L331,316L445,172Z" fill="#fff1a9" stroke="#fff1a9" fill-opacity="1" stroke-opacity="1"></path><path d="M445,172L331,316L448,350Z" fill="#fff5c0" stroke="#fff5c0" fill-opacity="1" stroke-opacity="1"></path><path d="M445,172L448,350L648,199Z" fill="#fffec3" stroke="#fffec3" fill-opacity="1" stroke-opacity="1"></path><path d="M648,199L448,350L641,388Z" fill="#f9fdbf" stroke="#f9fdbf" fill-opacity="1" stroke-opacity="1"></path><path d="M648,199L641,388L794,365Z" fill="#edf8ac" stroke="#edf8ac" fill-opacity="1" stroke-opacity="1"></path><path d="M648,199L794,365L757,174Z" fill="#e6f4a9" stroke="#e6f4a9" fill-opacity="1" stroke-opacity="1"></path><path d="M757,174L794,365L899,232Z" fill="#d4eda2" stroke="#d4eda2" fill-opacity="1" stroke-opacity="1"></path><path d="M899,232L794,365L886,365Z" fill="#cce996" stroke="#cce996" fill-opacity="1" stroke-opacity="1"></path><path d="M899,232L886,365L1010,373Z" fill="#b5de91" stroke="#b5de91" fill-opacity="1" stroke-opacity="1"></path><path d="M899,232L1010,373L1068,258Z" fill="#a1d59a" stroke="#a1d59a" fill-opacity="1" stroke-opacity="1"></path><path d="M1068,258L1010,373L1182,400Z" fill="#81c683" stroke="#81c683" fill-opacity="1" stroke-opacity="1"></path><path d="M1068,258L1182,400L1215,207Z" fill="#80bb92" stroke="#80bb92" fill-opacity="1" stroke-opacity="1"></path><path d="M1215,207L1182,400L1302,404Z" fill="#80af7e" stroke="#80af7e" fill-opacity="1" stroke-opacity="1"></path><path d="M1215,207L1302,404L1332,167Z" fill="#80a789" stroke="#80a789" fill-opacity="1" stroke-opacity="1"></path><path d="M1332,167L1302,404L1361,727Z" fill="#659d5d" stroke="#659d5d" fill-opacity="1" stroke-opacity="1"></path><path d="M-51,384L-60,634L-46,476Z" fill="#a47a42" stroke="#a47a42" fill-opacity="1" stroke-opacity="1"></path><path d="M-51,384L-46,476L69,330Z" fill="#df945e" stroke="#df945e" fill-opacity="1" stroke-opacity="1"></path><path d="M69,330L-46,476L81,527Z" fill="#cf9e58" stroke="#cf9e58" fill-opacity="1" stroke-opacity="1"></path><path d="M69,330L81,527L214,524Z" fill="#d1b460" stroke="#d1b460" fill-opacity="1" stroke-opacity="1"></path><path d="M69,330L214,524L248,322Z" fill="#f5c67b" stroke="#f5c67b" fill-opacity="1" stroke-opacity="1"></path><path d="M248,322L214,524L352,483Z" fill="#dfda79" stroke="#dfda79" fill-opacity="1" stroke-opacity="1"></path><path d="M248,322L352,483L331,316Z" fill="#fee693" stroke="#fee693" fill-opacity="1" stroke-opacity="1"></path><path d="M331,316L352,483L448,350Z" fill="#faf29a" stroke="#faf29a" fill-opacity="1" stroke-opacity="1"></path><path d="M448,350L352,483L447,532Z" fill="#daf28b" stroke="#daf28b" fill-opacity="1" stroke-opacity="1"></path><path d="M448,350L447,532L641,388Z" fill="#e9fca2" stroke="#e9fca2" fill-opacity="1" stroke-opacity="1"></path><path d="M641,388L447,532L668,543Z" fill="#bff18d" stroke="#bff18d" fill-opacity="1" stroke-opacity="1"></path><path d="M641,388L668,543L795,450Z" fill="#c5f380" stroke="#c5f380" fill-opacity="1" stroke-opacity="1"></path><path d="M641,388L795,450L794,365Z" fill="#d6f28c" stroke="#d6f28c" fill-opacity="1" stroke-opacity="1"></path><path d="M794,365L795,450L886,365Z" fill="#c9eb83" stroke="#c9eb83" fill-opacity="1" stroke-opacity="1"></path><path d="M886,365L795,450L883,453Z" fill="#b6e778" stroke="#b6e778" fill-opacity="1" stroke-opacity="1"></path><path d="M886,365L883,453L1010,373Z" fill="#acde7a" stroke="#acde7a" fill-opacity="1" stroke-opacity="1"></path><path d="M1010,373L883,453L1030,482Z" fill="#8bd56d" stroke="#8bd56d" fill-opacity="1" stroke-opacity="1"></path><path d="M1010,373L1030,482L1182,400Z" fill="#70c66d" stroke="#70c66d" fill-opacity="1" stroke-opacity="1"></path><path d="M1182,400L1030,482L1209,539Z" fill="#50b75c" stroke="#50b75c" fill-opacity="1" stroke-opacity="1"></path><path d="M1182,400L1209,539L1299,448Z" fill="#58ac5a" stroke="#58ac5a" fill-opacity="1" stroke-opacity="1"></path><path d="M1182,400L1299,448L1302,404Z" fill="#6ca965" stroke="#6ca965" fill-opacity="1" stroke-opacity="1"></path><path d="M1302,404L1299,448L1328,640Z" fill="#3f9452" stroke="#3f9452" fill-opacity="1" stroke-opacity="1"></path><path d="M1302,404L1328,640L1361,727Z" fill="#006f47" stroke="#006f47" fill-opacity="1" stroke-opacity="1"></path><path d="M-46,476L-60,634L81,527Z" fill="#857544" stroke="#857544" fill-opacity="1" stroke-opacity="1"></path><path d="M81,527L-60,634L56,662Z" fill="#6e6842" stroke="#6e6842" fill-opacity="1" stroke-opacity="1"></path><path d="M81,527L56,662L218,652Z" fill="#787e4f" stroke="#787e4f" fill-opacity="1" stroke-opacity="1"></path><path d="M81,527L218,652L214,524Z" fill="#889d5b" stroke="#889d5b" fill-opacity="1" stroke-opacity="1"></path><path d="M214,524L218,652L352,483Z" fill="#94b869" stroke="#94b869" fill-opacity="1" stroke-opacity="1"></path><path d="M352,483L218,652L389,685Z" fill="#7fb26c" stroke="#7fb26c" fill-opacity="1" stroke-opacity="1"></path><path d="M352,483L389,685L447,532Z" fill="#8acc7b" stroke="#8acc7b" fill-opacity="1" stroke-opacity="1"></path><path d="M447,532L389,685L501,616Z" fill="#80c07e" stroke="#80c07e" fill-opacity="1" stroke-opacity="1"></path><path d="M447,532L501,616L668,543Z" fill="#8cd88d" stroke="#8cd88d" fill-opacity="1" stroke-opacity="1"></path><path d="M668,543L501,616L637,679Z" fill="#77c37e" stroke="#77c37e" fill-opacity="1" stroke-opacity="1"></path><path d="M668,543L637,679L817,590Z" fill="#6bc170" stroke="#6bc170" fill-opacity="1" stroke-opacity="1"></path><path d="M668,543L817,590L795,450Z" fill="#89d871" stroke="#89d871" fill-opacity="1" stroke-opacity="1"></path><path d="M795,450L817,590L883,453Z" fill="#90dc6b" stroke="#90dc6b" fill-opacity="1" stroke-opacity="1"></path><path d="M883,453L817,590L902,618Z" fill="#5fc561" stroke="#5fc561" fill-opacity="1" stroke-opacity="1"></path><path d="M883,453L902,618L1030,482Z" fill="#63c761" stroke="#63c761" fill-opacity="1" stroke-opacity="1"></path><path d="M1030,482L902,618L1101,679Z" fill="#1ba156" stroke="#1ba156" fill-opacity="1" stroke-opacity="1"></path><path d="M1030,482L1101,679L1209,539Z" fill="#0b9a54" stroke="#0b9a54" fill-opacity="1" stroke-opacity="1"></path><path d="M1209,539L1101,679L1193,657Z" fill="#007c4b" stroke="#007c4b" fill-opacity="1" stroke-opacity="1"></path><path d="M1209,539L1193,657L1328,640Z" fill="#007649" stroke="#007649" fill-opacity="1" stroke-opacity="1"></path><path d="M1209,539L1328,640L1299,448Z" fill="#1d884f" stroke="#1d884f" fill-opacity="1" stroke-opacity="1"></path><path d="M-60,634L-22,798L56,662Z" fill="#6b3f34" stroke="#6b3f34" fill-opacity="1" stroke-opacity="1"></path><path d="M56,662L-22,798L71,768Z" fill="#6f3b35" stroke="#6f3b35" fill-opacity="1" stroke-opacity="1"></path><path d="M56,662L71,768L218,652Z" fill="#786146" stroke="#786146" fill-opacity="1" stroke-opacity="1"></path><path d="M218,652L71,768L247,786Z" fill="#7e634b" stroke="#7e634b" fill-opacity="1" stroke-opacity="1"></path><path d="M218,652L247,786L363,754Z" fill="#7f7c59" stroke="#7f7c59" fill-opacity="1" stroke-opacity="1"></path><path d="M218,652L363,754L389,685Z" fill="#7f9363" stroke="#7f9363" fill-opacity="1" stroke-opacity="1"></path><path d="M389,685L363,754L447,800Z" fill="#7f8c6a" stroke="#7f8c6a" fill-opacity="1" stroke-opacity="1"></path><path d="M389,685L447,800L501,616Z" fill="#80a175" stroke="#80a175" fill-opacity="1" stroke-opacity="1"></path><path d="M501,616L447,800L637,679Z" fill="#7fa880" stroke="#7fa880" fill-opacity="1" stroke-opacity="1"></path><path d="M637,679L447,800L648,770Z" fill="#7a9474" stroke="#7a9474" fill-opacity="1" stroke-opacity="1"></path><path d="M637,679L648,770L776,732Z" fill="#6e9766" stroke="#6e9766" fill-opacity="1" stroke-opacity="1"></path><path d="M637,679L776,732L817,590Z" fill="#64a865" stroke="#64a865" fill-opacity="1" stroke-opacity="1"></path><path d="M817,590L776,732L902,618Z" fill="#52a75c" stroke="#52a75c" fill-opacity="1" stroke-opacity="1"></path><path d="M902,618L776,732L926,768Z" fill="#4a8e52" stroke="#4a8e52" fill-opacity="1" stroke-opacity="1"></path><path d="M902,618L926,768L1023,764Z" fill="#2f7e4c" stroke="#2f7e4c" fill-opacity="1" stroke-opacity="1"></path><path d="M902,618L1023,764L1101,679Z" fill="#1c7f4d" stroke="#1c7f4d" fill-opacity="1" stroke-opacity="1"></path><path d="M1101,679L1023,764L1210,755Z" fill="#005f43" stroke="#005f43" fill-opacity="1" stroke-opacity="1"></path><path d="M1101,679L1210,755L1193,657Z" fill="#006344" stroke="#006344" fill-opacity="1" stroke-opacity="1"></path><path d="M1193,657L1210,755L1328,640Z" fill="#005c42" stroke="#005c42" fill-opacity="1" stroke-opacity="1"></path><path d="M1328,640L1210,755L1361,727Z" fill="#004b3d" stroke="#004b3d" fill-opacity="1" stroke-opacity="1"></path><path d="M-22,798L447,800L247,786Z" fill="#7f594b" stroke="#7f594b" fill-opacity="1" stroke-opacity="1"></path><path d="M-22,798L247,786L71,768Z" fill="#763d3a" stroke="#763d3a" fill-opacity="1" stroke-opacity="1"></path><path d="M247,786L447,800L363,754Z" fill="#7f7c5f" stroke="#7f7c5f" fill-opacity="1" stroke-opacity="1"></path><path d="M447,800L1210,755L1023,764Z" fill="#437349" stroke="#437349" fill-opacity="1" stroke-opacity="1"></path><path d="M447,800L1023,764L926,768Z" fill="#597b53" stroke="#597b53" fill-opacity="1" stroke-opacity="1"></path><path d="M447,800L926,768L648,770Z" fill="#708563" stroke="#708563" fill-opacity="1" stroke-opacity="1"></path><path d="M648,770L926,768L776,732Z" fill="#5c8457" stroke="#5c8457" fill-opacity="1" stroke-opacity="1"></path></g><filter id="noise"><feTurbulence type="fractalNoise" in="fillPaint" fill="#F00" baseFrequency="0.7" numOctaves="10" stitchTiles="stitch"></feTurbulence><feComponentTransfer><feFuncR type="linear" slope="2" intercept="-.5"></feFuncR><feFuncG type="linear" slope="2" intercept="-.5"></feFuncG><feFuncB type="linear" slope="2" intercept="-.5"></feFuncB></feComponentTransfer><feColorMatrix type="matrix" values="0.3333 0.3333 0.3333 0 0 
 0.3333 0.3333 0.3333 0 0 
 0.3333 0.3333 0.3333 0 0 
 0 0 0 1 0"></feColorMatrix></filter><rect opacity="0.4" width="100%" height="100%" filter="url(#noise)"></rect></svg>