<svg class="kg-fill" width="24" height="24" viewBox="0 0 24 24" fill="none" xmlns="http://www.w3.org/2000/svg">
<path d="M11.9596 0C10.3402 0 2.40255 4.55248 1.60149 5.94087C0.799505 7.32927 0.799505 16.426 1.60149 17.8098C2.40712 19.1973 10.3447 23.7489 11.9596 23.7489C13.5709 23.7489 21.5085 19.2001 22.316 17.8135C23.1262 16.4233 23.1262 7.32013 22.316 5.93539V5.93356C21.5021 4.54882 13.5654 0 11.9596 0ZM11.9615 1.37013C13.5115 1.69256 20.0196 5.67872 21.0956 6.85977C21.5889 8.35778 21.588 15.3856 21.0956 16.8873C20.0269 18.0665 13.5125 22.0572 11.9596 22.3787C10.4087 22.059 3.89781 18.0683 2.82728 16.8873C2.3386 15.382 2.3386 8.36326 2.82728 6.85977C3.89598 5.67872 10.4096 1.68982 11.9615 1.37013ZM9.22122 5.48051L7.39438 7.30734H8.3078V16.4415H10.1346V12.7879H13.7883V16.4415H12.8749L14.7017 18.2684L16.5286 16.4415H15.6151V8.22076H13.7883L13.7883 10.961H10.1346V7.30734H11.0481L9.22122 5.48051Z" fill="#1B203D"/>
</svg>
