<svg class="kg-fill" width="24" height="24" viewBox="0 0 24 24" fill="none" xmlns="http://www.w3.org/2000/svg">
<path d="M10.1625 6.56252C10.2624 6.39143 10.4259 6.2668 10.6174 6.21586C10.8088 6.16492 11.0127 6.19181 11.1844 6.29065L17.6813 10.0406C17.7669 10.0892 17.842 10.1544 17.9022 10.2323C17.9624 10.3102 18.0064 10.3994 18.0317 10.4945C18.057 10.5897 18.0631 10.6889 18.0496 10.7864C18.0361 10.884 18.0033 10.9778 17.9531 11.0625C17.8898 11.1781 17.7961 11.2742 17.682 11.3403C17.568 11.4064 17.438 11.44 17.3063 11.4375C17.1739 11.4401 17.0436 11.4043 16.9313 11.3344L10.4344 7.5844C10.2633 7.48451 10.1387 7.32099 10.0877 7.12953C10.0368 6.93807 10.0637 6.73423 10.1625 6.56252ZM18.6281 8.81252C18.7681 8.9504 18.9566 9.02782 19.1531 9.02815C19.3523 9.02731 19.5435 8.95014 19.6875 8.81252C19.8278 8.67193 19.9065 8.48143 19.9065 8.28284C19.9065 8.08424 19.8278 7.89375 19.6875 7.75315L14.3812 2.4469C14.2386 2.31763 14.0517 2.24817 13.8592 2.25291C13.6667 2.25765 13.4835 2.33622 13.3473 2.47236C13.2112 2.60849 13.1326 2.79176 13.1279 2.98423C13.1231 3.17669 13.1926 3.36361 13.3219 3.50627L18.6281 8.81252ZM8.70938 12.2719L15.9562 14.2125C16.0169 14.2318 16.0802 14.2413 16.1437 14.2406C16.3243 14.2391 16.4983 14.1724 16.6336 14.0529C16.769 13.9334 16.8567 13.7691 16.8806 13.5901C16.9046 13.4111 16.8631 13.2295 16.7639 13.0786C16.6647 12.9278 16.5144 12.8177 16.3406 12.7688L9.09375 10.8281C8.99592 10.7925 8.89174 10.7776 8.78784 10.7845C8.68394 10.7913 8.5826 10.8197 8.49028 10.8678C8.39795 10.9159 8.31666 10.9828 8.25158 11.0641C8.1865 11.1453 8.13906 11.2393 8.11227 11.3399C8.08548 11.4405 8.07994 11.5456 8.09599 11.6485C8.11204 11.7514 8.14934 11.8498 8.20551 11.9374C8.26168 12.0251 8.33549 12.1001 8.42224 12.1577C8.50898 12.2153 8.60677 12.2542 8.70938 12.2719ZM19.5 13.5C19.3011 13.5 19.1103 13.579 18.9697 13.7197C18.829 13.8603 18.75 14.0511 18.75 14.25V19.5H5.25V14.25C5.25 14.0511 5.17098 13.8603 5.03033 13.7197C4.88968 13.579 4.69891 13.5 4.5 13.5C4.30109 13.5 4.11032 13.579 3.96967 13.7197C3.82902 13.8603 3.75 14.0511 3.75 14.25V20.25C3.75 20.4489 3.82902 20.6397 3.96967 20.7804C4.11032 20.921 4.30109 21 4.5 21H19.5C19.6989 21 19.8897 20.921 20.0303 20.7804C20.171 20.6397 20.25 20.4489 20.25 20.25V14.25C20.25 14.0511 20.171 13.8603 20.0303 13.7197C19.8897 13.579 19.6989 13.5 19.5 13.5ZM8.25 17.25H15.75C15.9489 17.25 16.1397 17.171 16.2803 17.0304C16.421 16.8897 16.5 16.6989 16.5 16.5C16.5 16.3011 16.421 16.1103 16.2803 15.9697C16.1397 15.829 15.9489 15.75 15.75 15.75H8.25C8.05109 15.75 7.86032 15.829 7.71967 15.9697C7.57902 16.1103 7.5 16.3011 7.5 16.5C7.5 16.6989 7.57902 16.8897 7.71967 17.0304C7.86032 17.171 8.05109 17.25 8.25 17.25Z" fill="#1B203D"/>
</svg>
